<svg xmlns="http://www.w3.org/2000/svg" xmlns:xlink="http://www.w3.org/1999/xlink" version="1.1" width="29" height="230" enable-background="new 0 0 29 230" xml:space="preserve"><rect id="backgroundrect" width="100%" height="100%" x="0" y="0" fill="none" stroke="none"/>


<g class="currentLayer" style=""><title>Layer 1</title><polygon fill="#E5A124" points="29.997,17 15,0 0.002,17 0,17 0,230 29,230 29,17 " id="svg_1"/><g id="svg_2" class="">
	<path fill="#2B318B" d="M15.782,175.66864080810547 l0.028000000000000004,-0.010000000000000002 c0.7600000000000001,-0.014000000000000002 1.354,0.21700000000000003 1.783,0.6920000000000002 s0.6460000000000001,1.131 0.6460000000000001,1.968 c0,0.8540000000000001 -0.274,1.541 -0.8230000000000001,2.065 c-0.548,0.524 -1.2570000000000001,0.786 -2.126,0.786 h-1.411 c-0.8660000000000001,0 -1.574,-0.256 -2.127,-0.7680000000000001 c-0.551,-0.511 -0.8270000000000001,-1.182 -0.8270000000000001,-2.012 c0,-0.8650000000000001 0.21200000000000002,-1.5430000000000001 0.6350000000000001,-2.031 s1.019,-0.7260000000000001 1.787,-0.7130000000000001 l0.029000000000000005,0.010000000000000002 v1.387 c-0.456,0 -0.795,0.10900000000000001 -1.019,0.33000000000000007 c-0.22300000000000003,0.22000000000000003 -0.3340000000000001,0.56 -0.3340000000000001,1.019 c0,0.42700000000000005 0.17200000000000001,0.7610000000000001 0.516,0.998 c0.3430000000000001,0.24000000000000002 0.786,0.35800000000000004 1.33,0.35800000000000004 h1.421 c0.547,0 0.994,-0.125 1.338,-0.37900000000000006 c0.3450000000000001,-0.252 0.519,-0.6030000000000001 0.519,-1.051 c0,-0.42800000000000005 -0.11100000000000002,-0.7460000000000001 -0.3360000000000001,-0.9550000000000001 c-0.22300000000000003,-0.21100000000000002 -0.5640000000000001,-0.31400000000000006 -1.027,-0.31400000000000006 L15.782,175.66864080810547 L15.782,175.66864080810547 z" id="svg_3"/>
	<path fill="#2B318B" d="M15.445,174.96564080810546 c-0.788,0 -1.433,-0.22100000000000003 -1.937,-0.6590000000000001 c-0.502,-0.43800000000000006 -0.7540000000000001,-1.048 -0.7540000000000001,-1.826 c0,-0.78 0.251,-1.3940000000000001 0.7520000000000001,-1.836 s1.147,-0.6640000000000001 1.9380000000000002,-0.6640000000000001 h0.10300000000000001 c0.794,0 1.4420000000000002,0.22200000000000003 1.9420000000000002,0.6620000000000001 c0.49900000000000005,0.44000000000000006 0.7490000000000001,1.05 0.7490000000000001,1.828 c0,0.78 -0.25,1.3940000000000001 -0.7490000000000001,1.834 c-0.5,0.44000000000000006 -1.147,0.6610000000000001 -1.9420000000000002,0.6610000000000001 H15.445 zM15.547,173.54364080810547 c0.48200000000000004,0 0.8690000000000001,-0.08400000000000002 1.161,-0.254 c0.29100000000000004,-0.16800000000000004 0.43700000000000006,-0.44100000000000006 0.43700000000000006,-0.8190000000000001 c0,-0.36800000000000005 -0.14600000000000002,-0.6380000000000001 -0.43800000000000006,-0.81 c-0.29300000000000004,-0.17 -0.6790000000000002,-0.256 -1.158,-0.256 h-0.10300000000000001 c-0.46900000000000003,0 -0.8520000000000001,0.08600000000000002 -1.147,0.26 c-0.29500000000000004,0.17300000000000001 -0.44400000000000006,0.44300000000000006 -0.44400000000000006,0.8140000000000001 c0,0.36800000000000005 0.14900000000000002,0.6370000000000001 0.44600000000000006,0.809 c0.29900000000000004,0.17 0.6800000000000002,0.256 1.146,0.256 H15.547 z" id="svg_4"/>
	<path fill="#2B318B" d="M12.852,167.79764080810546 l0.7570000000000001,-0.06300000000000001 c-0.271,-0.17700000000000002 -0.48000000000000004,-0.3940000000000001 -0.6300000000000001,-0.6500000000000001 c-0.15000000000000002,-0.256 -0.22500000000000003,-0.545 -0.22500000000000003,-0.8630000000000001 c0,-0.534 0.17200000000000001,-0.9500000000000001 0.516,-1.25 c0.3430000000000001,-0.30000000000000004 0.8860000000000001,-0.44900000000000007 1.6280000000000001,-0.44900000000000007 h3.238 v1.432 h-3.233 c-0.37800000000000006,0 -0.6460000000000001,0.06400000000000002 -0.803,0.19700000000000004 c-0.15800000000000003,0.131 -0.23700000000000002,0.32900000000000007 -0.23700000000000002,0.5940000000000001 c0,0.21100000000000002 0.04000000000000001,0.3960000000000001 0.12000000000000001,0.56 c0.07900000000000001,0.16000000000000003 0.18900000000000003,0.29300000000000004 0.32900000000000007,0.3970000000000001 h3.824 v1.4260000000000002 h-5.284 V167.79764080810546 z" id="svg_5"/>
	<path fill="#2B318B" d="M11.558,161.74664080810547 h1.294 v-0.8940000000000001 h1.001 v0.8940000000000001 h2.6910000000000003 c0.20500000000000002,0 0.35300000000000004,-0.04300000000000001 0.43800000000000006,-0.129 c0.08800000000000002,-0.08600000000000002 0.133,-0.19900000000000004 0.133,-0.3400000000000001 c0,-0.07400000000000001 -0.004000000000000001,-0.14 -0.014000000000000002,-0.19500000000000003 c-0.008000000000000002,-0.05500000000000001 -0.021000000000000005,-0.11800000000000002 -0.04100000000000001,-0.18900000000000003 l1.03,-0.11700000000000002 c0.05000000000000001,0.14500000000000002 0.08500000000000002,0.28200000000000003 0.11000000000000001,0.41800000000000004 c0.023000000000000007,0.135 0.035,0.28200000000000003 0.035,0.44100000000000006 c0,0.49000000000000005 -0.135,0.8700000000000001 -0.404,1.1360000000000001 c-0.271,0.265 -0.6980000000000002,0.3970000000000001 -1.284,0.3970000000000001 h-2.696 v0.771 h-1.001 v-0.771 h-1.294 L11.558,161.74664080810547 L11.558,161.74664080810547 z" id="svg_6"/>
	<path fill="#2B318B" d="M14.078,157.19864080810547 l-0.015000000000000003,0.521 c0,0.21200000000000002 0.04400000000000001,0.38600000000000007 0.132,0.521 c0.08800000000000002,0.137 0.21200000000000002,0.24100000000000002 0.37100000000000005,0.31300000000000006 h3.5700000000000003 v1.421 h-5.284 v-1.322 l0.781,-0.06300000000000001 c-0.276,-0.12400000000000001 -0.49200000000000005,-0.28400000000000003 -0.6460000000000001,-0.47900000000000004 c-0.15500000000000003,-0.19700000000000004 -0.232,-0.42600000000000005 -0.232,-0.6830000000000002 c0,-0.07100000000000001 0.006000000000000002,-0.138 0.018000000000000002,-0.19700000000000004 c0.011000000000000003,-0.06200000000000001 0.024000000000000004,-0.12200000000000001 0.04100000000000001,-0.18400000000000002 L14.078,157.19864080810547 z" id="svg_7"/>
	<path fill="#2B318B" d="M15.445,156.77264080810545 c-0.788,0 -1.433,-0.22000000000000003 -1.937,-0.6580000000000001 c-0.502,-0.43900000000000006 -0.7540000000000001,-1.049 -0.7540000000000001,-1.826 c0,-0.781 0.251,-1.395 0.7520000000000001,-1.836 c0.501,-0.44200000000000006 1.147,-0.6640000000000001 1.9380000000000002,-0.6640000000000001 h0.10300000000000001 c0.794,0 1.4420000000000002,0.22100000000000003 1.9420000000000002,0.6620000000000001 c0.49900000000000005,0.43900000000000006 0.7490000000000001,1.049 0.7490000000000001,1.828 c0,0.78 -0.25,1.393 -0.7490000000000001,1.834 c-0.5,0.43900000000000006 -1.147,0.6600000000000001 -1.9420000000000002,0.6600000000000001 H15.445 L15.445,156.77264080810545 zM15.547,155.35164080810546 c0.48200000000000004,0 0.8690000000000001,-0.08500000000000002 1.161,-0.254 c0.29100000000000004,-0.16900000000000004 0.43700000000000006,-0.44200000000000006 0.43700000000000006,-0.8190000000000001 c0,-0.36900000000000005 -0.14600000000000002,-0.6380000000000001 -0.43800000000000006,-0.81 c-0.29300000000000004,-0.17 -0.6790000000000002,-0.256 -1.158,-0.256 h-0.10300000000000001 c-0.46900000000000003,0 -0.8520000000000001,0.08600000000000002 -1.147,0.259 s-0.44400000000000006,0.44300000000000006 -0.44400000000000006,0.8140000000000001 c0,0.36900000000000005 0.14900000000000002,0.6380000000000001 0.44600000000000006,0.81 c0.29900000000000004,0.17 0.6800000000000002,0.256 1.146,0.256 H15.547 z" id="svg_8"/>
	<path fill="#2B318B" d="M18.136,149.40964080810545 v1.4260000000000002 h-7.618 v-1.4260000000000002 H18.136 z" id="svg_9"/>
	<path fill="#2B318B" d="M16.279,141.93364080810545 c-0.272,0 -0.49300000000000005,0.09500000000000003 -0.6590000000000001,0.28600000000000003 c-0.16600000000000004,0.18900000000000003 -0.32200000000000006,0.523 -0.46900000000000003,1.003 c-0.24700000000000003,0.8190000000000001 -0.539,1.4420000000000002 -0.8740000000000001,1.868 c-0.3350000000000001,0.42400000000000004 -0.793,0.6370000000000001 -1.372,0.6370000000000001 c-0.5830000000000001,0 -1.059,-0.23800000000000002 -1.429,-0.7180000000000001 c-0.36900000000000005,-0.47900000000000004 -0.554,-1.089 -0.554,-1.831 c0,-0.788 0.19800000000000004,-1.4220000000000002 0.5960000000000001,-1.9020000000000001 c0.3970000000000001,-0.47900000000000004 0.918,-0.7120000000000001 1.5630000000000002,-0.6950000000000002 l0.029000000000000005,0.011000000000000003 v1.3820000000000001 c-0.35400000000000004,0 -0.6280000000000001,0.10700000000000001 -0.8170000000000001,0.32200000000000006 c-0.19100000000000003,0.21500000000000002 -0.28600000000000003,0.516 -0.28600000000000003,0.902 c0,0.35300000000000004 0.08500000000000002,0.6230000000000001 0.254,0.8150000000000001 c0.16900000000000004,0.19200000000000003 0.38600000000000007,0.28800000000000003 0.6490000000000001,0.28800000000000003 c0.24100000000000002,0 0.43800000000000006,-0.10400000000000001 0.5940000000000001,-0.31300000000000006 c0.15400000000000003,-0.20900000000000002 0.31700000000000006,-0.5680000000000001 0.49000000000000005,-1.08 c0.22200000000000003,-0.78 0.51,-1.377 0.8670000000000001,-1.787 c0.35500000000000004,-0.40900000000000003 0.8250000000000001,-0.6140000000000001 1.409,-0.6140000000000001 c0.6080000000000001,0 1.09,0.23700000000000002 1.44,0.7130000000000001 s0.526,1.104 0.526,1.8850000000000002 c0,0.7650000000000001 -0.18900000000000003,1.423 -0.5700000000000001,1.97 c-0.38100000000000006,0.549 -0.9490000000000001,0.8150000000000001 -1.705,0.799 l-0.029000000000000005,-0.010000000000000002 v-1.3820000000000001 c0.42000000000000004,0 0.7300000000000001,-0.12400000000000001 0.928,-0.37000000000000005 c0.19900000000000004,-0.24800000000000003 0.29900000000000004,-0.5840000000000001 0.29900000000000004,-1.007 c0,-0.38100000000000006 -0.08000000000000002,-0.6710000000000002 -0.23900000000000002,-0.8720000000000001 C16.761,142.03464080810545 16.547,141.93364080810545 16.279,141.93364080810545 z" id="svg_10"/>
	<path fill="#2B318B" d="M11.558,137.85664080810545 h1.294 v-0.8940000000000001 h1.001 v0.8940000000000001 h2.6910000000000003 c0.20500000000000002,0 0.35300000000000004,-0.04300000000000001 0.43800000000000006,-0.129 c0.08800000000000002,-0.08700000000000002 0.133,-0.19900000000000004 0.133,-0.3400000000000001 c0,-0.07500000000000001 -0.004000000000000001,-0.14100000000000001 -0.014000000000000002,-0.19500000000000003 c-0.008000000000000002,-0.05600000000000001 -0.021000000000000005,-0.11900000000000002 -0.04100000000000001,-0.18900000000000003 l1.03,-0.11700000000000002 c0.05000000000000001,0.14500000000000002 0.08500000000000002,0.281 0.11000000000000001,0.41700000000000004 c0.023000000000000007,0.136 0.035,0.28200000000000003 0.035,0.44200000000000006 c0,0.49000000000000005 -0.135,0.8690000000000001 -0.404,1.1360000000000001 c-0.271,0.265 -0.6980000000000002,0.3970000000000001 -1.284,0.3970000000000001 h-2.696 v0.771 h-1.001 v-0.771 h-1.294 L11.558,137.85664080810545 L11.558,137.85664080810545 z" id="svg_11"/>
	<path fill="#2B318B" d="M15.445,136.30364080810546 c-0.788,0 -1.433,-0.22100000000000003 -1.937,-0.6590000000000001 c-0.502,-0.43800000000000006 -0.7540000000000001,-1.048 -0.7540000000000001,-1.8250000000000002 c0,-0.781 0.251,-1.395 0.7520000000000001,-1.8370000000000002 s1.147,-0.6630000000000001 1.9380000000000002,-0.6630000000000001 h0.10300000000000001 c0.794,0 1.4420000000000002,0.22100000000000003 1.9420000000000002,0.6610000000000001 c0.49900000000000005,0.44000000000000006 0.7490000000000001,1.05 0.7490000000000001,1.828 c0,0.781 -0.25,1.3940000000000001 -0.7490000000000001,1.834 c-0.5,0.44000000000000006 -1.147,0.6610000000000001 -1.9420000000000002,0.6610000000000001 H15.445 zM15.547,134.88264080810546 c0.48200000000000004,0 0.8690000000000001,-0.08500000000000002 1.161,-0.254 c0.29100000000000004,-0.16900000000000004 0.43700000000000006,-0.44200000000000006 0.43700000000000006,-0.8200000000000001 c0,-0.36800000000000005 -0.14600000000000002,-0.6370000000000001 -0.43800000000000006,-0.81 c-0.29300000000000004,-0.17 -0.6790000000000002,-0.256 -1.158,-0.256 h-0.10300000000000001 c-0.46900000000000003,0 -0.8520000000000001,0.08600000000000002 -1.147,0.26 c-0.29500000000000004,0.17300000000000001 -0.44400000000000006,0.44300000000000006 -0.44400000000000006,0.8140000000000001 c0,0.36800000000000005 0.14900000000000002,0.6370000000000001 0.44600000000000006,0.809 c0.29900000000000004,0.171 0.6800000000000002,0.257 1.146,0.257 H15.547 L15.547,134.88264080810546 z" id="svg_12"/>
	<path fill="#2B318B" d="M14.078,127.66064080810547 l-0.015000000000000003,0.521 c0,0.21200000000000002 0.04400000000000001,0.38700000000000007 0.132,0.521 c0.08800000000000002,0.137 0.21200000000000002,0.24200000000000002 0.37100000000000005,0.31300000000000006 h3.5700000000000003 V130.43964080810548 h-5.284 v-1.323 l0.781,-0.06300000000000001 c-0.276,-0.12400000000000001 -0.49200000000000005,-0.28400000000000003 -0.6460000000000001,-0.48000000000000004 c-0.15500000000000003,-0.19700000000000004 -0.232,-0.42500000000000004 -0.232,-0.6820000000000002 c0,-0.07 0.006000000000000002,-0.138 0.018000000000000002,-0.19700000000000004 c0.011000000000000003,-0.06100000000000001 0.024000000000000004,-0.12100000000000001 0.04100000000000001,-0.18400000000000002 L14.078,127.66064080810547 z" id="svg_13"/>
	<path fill="#2B318B" d="M18.238,124.72164080810546 c0,0.788 -0.24100000000000002,1.4020000000000001 -0.7270000000000001,1.846 c-0.48200000000000004,0.44200000000000006 -1.104,0.6640000000000001 -1.867,0.6640000000000001 H15.45 c-0.791,0 -1.4380000000000002,-0.21500000000000002 -1.943,-0.6450000000000001 c-0.505,-0.43000000000000005 -0.7550000000000001,-1.021 -0.7520000000000001,-1.772 c0,-0.7100000000000001 0.21700000000000003,-1.254 0.6520000000000001,-1.633 c0.43400000000000005,-0.38000000000000006 1.02,-0.5690000000000001 1.7550000000000001,-0.5690000000000001 h0.7360000000000001 v3.149 l0.029000000000000005,0.015000000000000003 c0.36200000000000004,-0.021000000000000005 0.6550000000000001,-0.133 0.8790000000000001,-0.32800000000000007 c0.22600000000000003,-0.19700000000000004 0.3380000000000001,-0.49000000000000005 0.3380000000000001,-0.8770000000000001 c0,-0.32000000000000006 -0.03300000000000001,-0.5910000000000001 -0.09900000000000003,-0.8130000000000001 c-0.06500000000000002,-0.22400000000000003 -0.16400000000000003,-0.454 -0.29800000000000004,-0.6910000000000002 l0.8790000000000001,-0.38600000000000007 c0.17300000000000001,0.21200000000000002 0.31600000000000006,0.49800000000000005 0.43600000000000005,0.8590000000000001 C18.18,123.90064080810546 18.238,124.29364080810547 18.238,124.72164080810546 zM13.853,124.81464080810547 c0,0.28600000000000003 0.09900000000000003,0.507 0.29600000000000004,0.6620000000000001 c0.19600000000000004,0.15400000000000003 0.458,0.24800000000000003 0.783,0.28 l0.024000000000000004,-0.010000000000000002 v-1.738 h-0.10700000000000001 c-0.31000000000000005,0 -0.553,0.06300000000000001 -0.7290000000000001,0.18900000000000003 C13.942,124.32764080810547 13.853,124.53264080810547 13.853,124.81464080810547 z" id="svg_14"/>
	<path fill="#2B318B" d="M15.782,113.85264080810546 l0.028000000000000004,-0.010000000000000002 c0.7600000000000001,-0.013000000000000003 1.354,0.21800000000000003 1.783,0.6930000000000002 s0.6460000000000001,1.131 0.6460000000000001,1.968 c0,0.8530000000000001 -0.274,1.54 -0.8230000000000001,2.065 c-0.548,0.523 -1.2570000000000001,0.785 -2.126,0.785 h-1.411 c-0.8660000000000001,0 -1.574,-0.256 -2.127,-0.7670000000000001 c-0.551,-0.511 -0.8270000000000001,-1.183 -0.8270000000000001,-2.013 c0,-0.8650000000000001 0.21200000000000002,-1.542 0.6350000000000001,-2.031 c0.42300000000000004,-0.48800000000000004 1.019,-0.7260000000000001 1.787,-0.7130000000000001 l0.029000000000000005,0.010000000000000002 v1.387 c-0.456,0 -0.795,0.10900000000000001 -1.019,0.33000000000000007 c-0.22300000000000003,0.22000000000000003 -0.3340000000000001,0.56 -0.3340000000000001,1.019 c0,0.42700000000000005 0.17200000000000001,0.7600000000000001 0.516,0.998 c0.3430000000000001,0.23900000000000002 0.786,0.35800000000000004 1.33,0.35800000000000004 h1.421 c0.547,0 0.994,-0.126 1.338,-0.37900000000000006 c0.3450000000000001,-0.252 0.519,-0.6030000000000001 0.519,-1.052 c0,-0.42800000000000005 -0.11100000000000002,-0.7450000000000001 -0.3360000000000001,-0.9540000000000001 c-0.22300000000000003,-0.21100000000000002 -0.5640000000000001,-0.31500000000000006 -1.027,-0.31500000000000006 L15.782,113.85264080810546 L15.782,113.85264080810546 z" id="svg_15"/>
	<path fill="#2B318B" d="M15.445,113.14964080810547 c-0.788,0 -1.433,-0.22000000000000003 -1.937,-0.6590000000000001 c-0.502,-0.43900000000000006 -0.7540000000000001,-1.048 -0.7540000000000001,-1.826 c0,-0.781 0.251,-1.3940000000000001 0.7520000000000001,-1.836 s1.147,-0.6640000000000001 1.9380000000000002,-0.6640000000000001 h0.10300000000000001 c0.794,0 1.4420000000000002,0.22100000000000003 1.9420000000000002,0.6620000000000001 c0.49900000000000005,0.44000000000000006 0.7490000000000001,1.05 0.7490000000000001,1.828 c0,0.781 -0.25,1.393 -0.7490000000000001,1.834 c-0.5,0.44000000000000006 -1.147,0.6610000000000001 -1.9420000000000002,0.6610000000000001 H15.445 zM15.547,111.72864080810547 c0.48200000000000004,0 0.8690000000000001,-0.08500000000000002 1.161,-0.254 c0.29100000000000004,-0.16900000000000004 0.43700000000000006,-0.44200000000000006 0.43700000000000006,-0.8200000000000001 c0,-0.36800000000000005 -0.14600000000000002,-0.6370000000000001 -0.43800000000000006,-0.809 c-0.29300000000000004,-0.17 -0.6790000000000002,-0.256 -1.158,-0.256 h-0.10300000000000001 c-0.46900000000000003,0 -0.8520000000000001,0.08600000000000002 -1.147,0.259 s-0.44400000000000006,0.44400000000000006 -0.44400000000000006,0.8150000000000001 c0,0.36800000000000005 0.14900000000000002,0.6370000000000001 0.44600000000000006,0.809 c0.29900000000000004,0.17 0.6800000000000002,0.256 1.146,0.256 H15.547 z" id="svg_16"/>
	<path fill="#2B318B" d="M12.852,105.98164080810547 l0.7570000000000001,-0.06300000000000001 c-0.271,-0.17600000000000002 -0.48000000000000004,-0.39300000000000007 -0.6300000000000001,-0.6490000000000001 s-0.22500000000000003,-0.545 -0.22500000000000003,-0.8640000000000001 c0,-0.534 0.17200000000000001,-0.9500000000000001 0.516,-1.25 c0.3430000000000001,-0.30000000000000004 0.8860000000000001,-0.44900000000000007 1.6280000000000001,-0.44900000000000007 h3.238 v1.431 h-3.233 c-0.37800000000000006,0 -0.6460000000000001,0.06500000000000002 -0.803,0.19800000000000004 c-0.15800000000000003,0.131 -0.23700000000000002,0.32900000000000007 -0.23700000000000002,0.5930000000000001 c0,0.21200000000000002 0.04000000000000001,0.3970000000000001 0.12000000000000001,0.56 c0.07900000000000001,0.16000000000000003 0.18900000000000003,0.29300000000000004 0.32900000000000007,0.3970000000000001 h3.824 v1.4260000000000002 h-5.284 V105.98164080810547 z" id="svg_17"/>
	<path fill="#2B318B" d="M18.136,101.30364080810547 h-4.283 v0.786 h-1.001 v-0.786 h-0.36100000000000004 c-0.6640000000000001,0 -1.176,-0.202 -1.5350000000000001,-0.6080000000000001 c-0.36000000000000004,-0.404 -0.54,-0.976 -0.54,-1.711 c0,-0.254 0.025000000000000005,-0.505 0.07500000000000001,-0.7520000000000001 c0.05100000000000001,-0.24700000000000003 0.12300000000000001,-0.534 0.21800000000000003,-0.8590000000000001 l1.123,0.20500000000000002 c-0.07100000000000001,0.23700000000000002 -0.127,0.453 -0.16600000000000004,0.6460000000000001 c-0.03900000000000001,0.19400000000000003 -0.05900000000000001,0.41600000000000004 -0.05900000000000001,0.6670000000000001 c0,0.32900000000000007 0.07500000000000001,0.5750000000000001 0.22500000000000003,0.7390000000000001 c0.14900000000000002,0.16500000000000004 0.36900000000000005,0.24700000000000003 0.6590000000000001,0.24700000000000003 h0.36100000000000004 v-1.04 h1.001 v1.04 h4.283 V101.30364080810547 zM18.136,96.71364080810547 V98.13964080810547 h-5.284 v-1.4260000000000002 H18.136 z" id="svg_18"/>
	<path fill="#2B318B" d="M15.538,95.75164080810546 c-0.8330000000000001,0 -1.506,-0.18100000000000002 -2.017,-0.542 c-0.511,-0.36100000000000004 -0.7670000000000001,-0.8690000000000001 -0.7670000000000001,-1.5230000000000001 c0,-0.29600000000000004 0.06600000000000002,-0.557 0.2,-0.781 c0.134,-0.22400000000000003 0.32400000000000007,-0.41700000000000004 0.5710000000000001,-0.5760000000000001 l-0.6740000000000002,-0.11200000000000002 v-1.226 h5.258 c0.6880000000000002,0 1.219,0.22500000000000003 1.596,0.6740000000000002 c0.37500000000000006,0.44900000000000007 0.5630000000000001,1.076 0.5630000000000001,1.8800000000000001 c0,0.267 -0.035,0.55 -0.10900000000000001,0.8500000000000001 c-0.07200000000000001,0.30000000000000004 -0.17400000000000002,0.5760000000000001 -0.30100000000000005,0.8300000000000001 l-1.063,-0.23900000000000002 c0.10400000000000001,-0.21800000000000003 0.18300000000000002,-0.44300000000000006 0.23700000000000002,-0.6760000000000002 c0.05300000000000001,-0.233 0.08000000000000002,-0.48400000000000004 0.08000000000000002,-0.7550000000000001 c0,-0.39100000000000007 -0.08200000000000002,-0.6780000000000002 -0.24400000000000002,-0.8620000000000001 c-0.16300000000000003,-0.18400000000000002 -0.41700000000000004,-0.275 -0.7620000000000001,-0.275 h-0.47900000000000004 c0.19800000000000004,0.15600000000000003 0.35100000000000003,0.3400000000000001 0.454,0.552 s0.15600000000000003,0.454 0.15600000000000003,0.7280000000000001 c0,0.6470000000000001 -0.23700000000000002,1.1520000000000001 -0.7130000000000001,1.514 c-0.47700000000000004,0.36200000000000004 -1.104,0.542 -1.8850000000000002,0.542 h-0.101 V95.75164080810546 zM15.641,94.32664080810547 c0.461,0 0.8260000000000001,-0.07700000000000001 1.09,-0.231 c0.267,-0.15500000000000003 0.3980000000000001,-0.40800000000000003 0.3980000000000001,-0.7600000000000001 c0,-0.21800000000000003 -0.04000000000000001,-0.402 -0.11900000000000002,-0.555 c-0.08000000000000002,-0.15000000000000002 -0.19500000000000003,-0.272 -0.35000000000000003,-0.36300000000000004 h-2.291 c-0.16300000000000003,0.09100000000000003 -0.28800000000000003,0.21300000000000002 -0.37600000000000006,0.36300000000000004 c-0.08800000000000002,0.15200000000000002 -0.132,0.3330000000000001 -0.132,0.545 c0,0.3490000000000001 0.15400000000000003,0.6030000000000001 0.464,0.7620000000000001 c0.31000000000000005,0.15900000000000003 0.7130000000000001,0.23900000000000002 1.211,0.23900000000000002 H15.641 z" id="svg_19"/>
	<path fill="#2B318B" d="M17.354,86.66064080810547 c0.28300000000000003,0.16300000000000003 0.502,0.36900000000000005 0.6540000000000001,0.6200000000000001 c0.15300000000000002,0.251 0.22900000000000004,0.542 0.22900000000000004,0.8740000000000001 c0,0.557 -0.18800000000000003,0.992 -0.5650000000000001,1.306 s-0.9640000000000001,0.47200000000000003 -1.758,0.47200000000000003 h-3.062 v-1.421 h3.071 c0.462,0 0.779,-0.06300000000000001 0.9510000000000001,-0.18800000000000003 c0.17,-0.126 0.256,-0.32000000000000006 0.256,-0.5840000000000001 c0,-0.22800000000000004 -0.037000000000000005,-0.42300000000000004 -0.10900000000000001,-0.5860000000000001 c-0.07400000000000001,-0.16300000000000003 -0.18200000000000002,-0.29600000000000004 -0.32400000000000007,-0.4 h-3.843 v-1.4260000000000002 h5.284 v1.182 L17.354,86.66064080810547 z" id="svg_20"/>
	<path fill="#2B318B" d="M14.078,81.47464080810548 l-0.015000000000000003,0.522 c0,0.21200000000000002 0.04400000000000001,0.38600000000000007 0.132,0.522 c0.08800000000000002,0.136 0.21200000000000002,0.24100000000000002 0.37100000000000005,0.31300000000000006 h3.5700000000000003 v1.421 h-5.284 V82.92964080810546 l0.781,-0.06300000000000001 c-0.276,-0.12400000000000001 -0.49200000000000005,-0.28400000000000003 -0.6460000000000001,-0.48000000000000004 c-0.15500000000000003,-0.19700000000000004 -0.232,-0.42500000000000004 -0.232,-0.6820000000000002 c0,-0.07100000000000001 0.006000000000000002,-0.138 0.018000000000000002,-0.19700000000000004 c0.011000000000000003,-0.06100000000000001 0.024000000000000004,-0.12200000000000001 0.04100000000000001,-0.18400000000000002 L14.078,81.47464080810548 z" id="svg_21"/>
	<path fill="#2B318B" d="M18.136,77.61764080810548 c-0.12000000000000001,0.05200000000000001 -0.24700000000000003,0.09700000000000003 -0.38100000000000006,0.135 c-0.134,0.037000000000000005 -0.271,0.06300000000000001 -0.40900000000000003,0.08000000000000002 c0.256,0.14600000000000002 0.47100000000000003,0.3400000000000001 0.6390000000000001,0.5810000000000001 c0.17,0.24100000000000002 0.255,0.527 0.255,0.8590000000000001 c0,0.554 -0.14400000000000002,0.979 -0.42700000000000005,1.279 c-0.28500000000000003,0.30000000000000004 -0.6740000000000002,0.44900000000000007 -1.166,0.44900000000000007 c-0.518,0 -0.918,-0.19900000000000004 -1.205,-0.5990000000000001 c-0.28400000000000003,-0.3980000000000001 -0.42700000000000005,-0.98 -0.42700000000000005,-1.745 v-0.801 h-0.42000000000000004 c-0.254,0 -0.451,0.06600000000000002 -0.5910000000000001,0.2 c-0.14,0.134 -0.21000000000000002,0.3320000000000001 -0.21000000000000002,0.5960000000000001 c0,0.231 0.05600000000000001,0.40900000000000003 0.16900000000000004,0.535 c0.11100000000000002,0.125 0.266,0.18800000000000003 0.461,0.18800000000000003 v1.372 l-0.029000000000000005,0.010000000000000002 c-0.44600000000000006,0.022000000000000006 -0.8310000000000001,-0.17200000000000001 -1.154,-0.5830000000000001 c-0.32400000000000007,-0.41200000000000003 -0.48600000000000004,-0.9500000000000001 -0.48600000000000004,-1.614 c0,-0.6350000000000001 0.15900000000000003,-1.1480000000000001 0.47900000000000004,-1.54 c0.31900000000000006,-0.39300000000000007 0.776,-0.5890000000000001 1.372,-0.5890000000000001 h2.183 c0.24700000000000003,0 0.48000000000000004,-0.019000000000000003 0.6970000000000002,-0.05600000000000001 c0.21900000000000003,-0.038000000000000006 0.43600000000000005,-0.09800000000000003 0.6490000000000001,-0.17900000000000002 V77.61764080810548 zM17.184,78.92064080810547 c0,-0.24700000000000003 -0.06200000000000001,-0.46900000000000003 -0.18600000000000003,-0.6640000000000001 c-0.12400000000000001,-0.19500000000000003 -0.268,-0.32900000000000007 -0.43000000000000005,-0.4 H15.82 v0.801 c0,0.30300000000000005 0.07400000000000001,0.531 0.22500000000000003,0.6870000000000002 c0.14800000000000002,0.15400000000000003 0.3340000000000001,0.231 0.553,0.231 c0.17800000000000002,0 0.32000000000000006,-0.05800000000000001 0.42600000000000005,-0.17300000000000001 C17.131,79.28564080810547 17.184,79.12564080810546 17.184,78.92064080810547 z" id="svg_22"/>
	<path fill="#2B318B" d="M11.558,73.65264080810547 h1.294 v-0.8940000000000001 h1.001 v0.8940000000000001 h2.6910000000000003 c0.20500000000000002,0 0.35300000000000004,-0.04300000000000001 0.43800000000000006,-0.129 c0.08800000000000002,-0.08700000000000002 0.133,-0.2 0.133,-0.3400000000000001 c0,-0.07500000000000001 -0.004000000000000001,-0.14 -0.014000000000000002,-0.19500000000000003 c-0.008000000000000002,-0.05600000000000001 -0.021000000000000005,-0.11900000000000002 -0.04100000000000001,-0.19000000000000003 l1.03,-0.11700000000000002 c0.05000000000000001,0.14400000000000002 0.08500000000000002,0.28200000000000003 0.11000000000000001,0.41700000000000004 c0.023000000000000007,0.136 0.035,0.28300000000000003 0.035,0.44200000000000006 c0,0.49100000000000005 -0.135,0.8700000000000001 -0.404,1.1360000000000001 c-0.271,0.265 -0.6980000000000002,0.3970000000000001 -1.284,0.3970000000000001 h-2.696 v0.771 h-1.001 v-0.771 h-1.294 L11.558,73.65264080810547 L11.558,73.65264080810547 z" id="svg_23"/>
	<path fill="#2B318B" d="M11.587,70.38064080810547 v1.4260000000000002 h-1.069 v-1.4260000000000002 H11.587 zM18.136,70.38064080810547 v1.4260000000000002 h-5.284 v-1.4260000000000002 H18.136 z" id="svg_24"/>
	<path fill="#2B318B" d="M15.445,69.42864080810547 c-0.788,0 -1.433,-0.22000000000000003 -1.937,-0.6590000000000001 c-0.502,-0.43900000000000006 -0.7540000000000001,-1.048 -0.7540000000000001,-1.826 c0,-0.781 0.251,-1.3940000000000001 0.7520000000000001,-1.836 c0.501,-0.44200000000000006 1.147,-0.6640000000000001 1.9380000000000002,-0.6640000000000001 h0.10300000000000001 c0.794,0 1.4420000000000002,0.22100000000000003 1.9420000000000002,0.6620000000000001 c0.49900000000000005,0.44000000000000006 0.7490000000000001,1.05 0.7490000000000001,1.828 c0,0.781 -0.25,1.393 -0.7490000000000001,1.834 c-0.5,0.44000000000000006 -1.147,0.6610000000000001 -1.9420000000000002,0.6610000000000001 H15.445 zM15.547,68.00764080810546 c0.48200000000000004,0 0.8690000000000001,-0.08500000000000002 1.161,-0.254 c0.29100000000000004,-0.16900000000000004 0.43700000000000006,-0.44200000000000006 0.43700000000000006,-0.8200000000000001 c0,-0.36800000000000005 -0.14600000000000002,-0.6370000000000001 -0.43800000000000006,-0.809 c-0.29300000000000004,-0.17 -0.6790000000000002,-0.256 -1.158,-0.256 h-0.10300000000000001 c-0.46900000000000003,0 -0.8520000000000001,0.08600000000000002 -1.147,0.259 c-0.29500000000000004,0.17300000000000001 -0.44400000000000006,0.44400000000000006 -0.44400000000000006,0.8150000000000001 c0,0.36800000000000005 0.14900000000000002,0.6370000000000001 0.44600000000000006,0.809 c0.29900000000000004,0.17 0.6800000000000002,0.256 1.146,0.256 H15.547 z" id="svg_25"/>
	<path fill="#2B318B" d="M12.852,62.260640808105464 l0.7570000000000001,-0.06300000000000001 c-0.271,-0.17600000000000002 -0.48000000000000004,-0.39300000000000007 -0.6300000000000001,-0.6490000000000001 c-0.15000000000000002,-0.256 -0.22500000000000003,-0.545 -0.22500000000000003,-0.8640000000000001 c0,-0.534 0.17200000000000001,-0.9500000000000001 0.516,-1.25 c0.3430000000000001,-0.30000000000000004 0.8860000000000001,-0.44900000000000007 1.6280000000000001,-0.44900000000000007 h3.238 v1.431 h-3.233 c-0.37800000000000006,0 -0.6460000000000001,0.06500000000000002 -0.803,0.19800000000000004 c-0.15800000000000003,0.131 -0.23700000000000002,0.32900000000000007 -0.23700000000000002,0.5930000000000001 c0,0.21200000000000002 0.04000000000000001,0.3970000000000001 0.12000000000000001,0.56 c0.07900000000000001,0.16000000000000003 0.18900000000000003,0.29300000000000004 0.32900000000000007,0.3970000000000001 h3.824 v1.4260000000000002 h-5.284 V62.260640808105464 z" id="svg_26"/>
</g></g></svg>