<?xml version="1.0" encoding="utf-8"?>
<!-- Generator: Adobe Illustrator 16.0.0, SVG Export Plug-In . SVG Version: 6.00 Build 0)  -->
<!DOCTYPE svg PUBLIC "-//W3C//DTD SVG 1.1//EN" "http://www.w3.org/Graphics/SVG/1.1/DTD/svg11.dtd">
<svg version="1.1" id="Layer_1" xmlns="http://www.w3.org/2000/svg" xmlns:xlink="http://www.w3.org/1999/xlink" x="0px" y="0px"
	 width="330px" height="20px" viewBox="0 0 330 20" enable-background="new 0 0 330 20" xml:space="preserve">
<circle fill="#ED1F24" cx="7.833" cy="10" r="2.5"/>
<g>
	<path d="M14.415,12.5V7.523h1.565c0.649,0,1.172,0.2,1.567,0.6c0.395,0.4,0.593,0.917,0.593,1.55v0.68
		c0,0.636-0.198,1.152-0.593,1.55c-0.396,0.397-0.918,0.597-1.567,0.597H14.415z M15.088,8.053v3.92h0.892
		c0.46,0,0.823-0.151,1.089-0.454c0.265-0.304,0.398-0.692,0.398-1.166V9.667c0-0.469-0.133-0.855-0.398-1.159
		c-0.266-0.303-0.628-0.455-1.089-0.455H15.088z"/>
	<path d="M18.906,10.617c0-0.547,0.148-0.998,0.444-1.352c0.296-0.354,0.698-0.531,1.207-0.531c0.513,0,0.918,0.177,1.215,0.53
		c0.298,0.353,0.446,0.804,0.446,1.354v0.075c0,0.551-0.148,1.002-0.444,1.353c-0.296,0.352-0.7,0.527-1.21,0.527
		s-0.914-0.177-1.212-0.528c-0.297-0.353-0.446-0.803-0.446-1.352V10.617z M19.579,10.692c0,0.392,0.083,0.715,0.248,0.97
		c0.165,0.256,0.411,0.383,0.736,0.383c0.321,0,0.565-0.127,0.731-0.383c0.167-0.255,0.25-0.578,0.25-0.97v-0.075
		c0-0.387-0.083-0.71-0.251-0.967c-0.167-0.257-0.413-0.386-0.736-0.386c-0.321,0-0.564,0.129-0.729,0.386
		c-0.166,0.257-0.248,0.58-0.248,0.967V10.692z"/>
	<path d="M25.383,8.802l0.048,0.55c0.123-0.196,0.277-0.348,0.463-0.457c0.186-0.108,0.397-0.162,0.634-0.162
		c0.399,0,0.708,0.117,0.926,0.351c0.219,0.233,0.328,0.594,0.328,1.082V12.5h-0.673v-2.321c0-0.326-0.064-0.557-0.193-0.694
		C26.787,9.349,26.59,9.28,26.326,9.28c-0.208,0-0.383,0.042-0.528,0.125c-0.145,0.083-0.259,0.2-0.344,0.35V12.5h-0.673V8.802
		H25.383z"/>
	<path d="M28.603,10.617c0-0.547,0.148-0.998,0.444-1.352c0.296-0.354,0.698-0.531,1.207-0.531c0.513,0,0.918,0.177,1.215,0.53
		c0.298,0.353,0.446,0.804,0.446,1.354v0.075c0,0.551-0.148,1.002-0.444,1.353c-0.296,0.352-0.7,0.527-1.21,0.527
		s-0.914-0.177-1.212-0.528c-0.297-0.353-0.446-0.803-0.446-1.352V10.617z M29.276,10.692c0,0.392,0.083,0.715,0.248,0.97
		c0.165,0.256,0.411,0.383,0.736,0.383c0.321,0,0.565-0.127,0.731-0.383c0.167-0.255,0.25-0.578,0.25-0.97v-0.075
		c0-0.387-0.083-0.71-0.251-0.967c-0.167-0.257-0.413-0.386-0.736-0.386c-0.321,0-0.564,0.129-0.729,0.386
		c-0.166,0.257-0.248,0.58-0.248,0.967V10.692z"/>
	<path d="M33.675,7.91v0.892h0.701v0.499h-0.701v2.246c0,0.173,0.036,0.295,0.108,0.365c0.071,0.07,0.167,0.105,0.285,0.105
		c0.039,0,0.082-0.005,0.13-0.015c0.048-0.011,0.088-0.021,0.12-0.032l0.092,0.461c-0.05,0.041-0.124,0.074-0.222,0.101
		s-0.195,0.04-0.291,0.04c-0.273,0-0.491-0.083-0.653-0.248s-0.243-0.425-0.243-0.777V9.301h-0.588V8.802h0.588V7.91H33.675z"/>
	<path d="M37.564,7.855h-0.673V7.168h0.673V7.855z M37.564,12.5h-0.673V8.802h0.673V12.5z"/>
	<path d="M39.202,8.802l0.048,0.485c0.121-0.175,0.274-0.312,0.459-0.408c0.186-0.097,0.402-0.146,0.648-0.146
		s0.458,0.057,0.634,0.171c0.176,0.114,0.309,0.285,0.398,0.513c0.119-0.212,0.273-0.379,0.463-0.501
		c0.19-0.122,0.413-0.183,0.668-0.183c0.376,0,0.673,0.129,0.892,0.388c0.219,0.259,0.328,0.648,0.328,1.167V12.5h-0.673v-2.218
		c0-0.365-0.063-0.623-0.188-0.774c-0.125-0.152-0.312-0.228-0.561-0.228c-0.23,0-0.417,0.08-0.559,0.239
		c-0.142,0.16-0.226,0.361-0.251,0.605v0.027V12.5h-0.677v-2.218c0-0.346-0.064-0.6-0.193-0.76C40.51,9.36,40.325,9.28,40.083,9.28
		c-0.205,0-0.374,0.042-0.506,0.126s-0.233,0.203-0.304,0.355V12.5H38.6V8.802H39.202z"/>
	<path d="M47.87,10.791c0,0.533-0.127,0.963-0.383,1.29s-0.607,0.491-1.056,0.491c-0.228,0-0.428-0.039-0.6-0.115
		c-0.172-0.076-0.319-0.19-0.439-0.344v1.809h-0.673v-5.12h0.516L45.34,9.28c0.121-0.178,0.271-0.313,0.451-0.407
		s0.39-0.14,0.629-0.14c0.458,0,0.814,0.182,1.068,0.545c0.254,0.364,0.381,0.844,0.381,1.441V10.791z M47.196,10.719
		c0-0.419-0.083-0.764-0.248-1.034C46.783,9.415,46.54,9.28,46.219,9.28c-0.194,0-0.359,0.044-0.496,0.132
		c-0.137,0.087-0.247,0.208-0.332,0.36v1.788c0.084,0.152,0.195,0.271,0.332,0.356c0.137,0.086,0.304,0.128,0.502,0.128
		c0.319,0,0.561-0.116,0.725-0.35c0.164-0.234,0.246-0.535,0.246-0.904V10.719z"/>
	<path d="M49.425,12.5h-0.673V7.168h0.673V12.5z"/>
	<path d="M51.992,12.572c-0.531,0-0.945-0.17-1.243-0.51c-0.297-0.34-0.446-0.786-0.446-1.34v-0.15c0-0.531,0.153-0.97,0.459-1.317
		c0.307-0.348,0.681-0.521,1.123-0.521c0.495,0,0.865,0.154,1.112,0.461c0.248,0.308,0.371,0.717,0.371,1.227v0.355h-2.365
		l-0.01,0.017c0,0.372,0.082,0.672,0.246,0.904s0.415,0.347,0.752,0.347c0.228,0,0.428-0.032,0.6-0.097
		c0.172-0.065,0.319-0.154,0.442-0.269l0.263,0.438c-0.132,0.128-0.307,0.235-0.523,0.323S52.297,12.572,51.992,12.572z
		 M51.886,9.263c-0.235,0-0.429,0.09-0.583,0.272c-0.153,0.181-0.248,0.413-0.282,0.695l0.007,0.017h1.668v-0.055
		c0-0.269-0.066-0.491-0.198-0.667S52.162,9.263,51.886,9.263z"/>
	<path d="M54.726,8.802l0.048,0.485c0.121-0.175,0.274-0.312,0.459-0.408c0.186-0.097,0.402-0.146,0.648-0.146
		s0.458,0.057,0.634,0.171c0.176,0.114,0.309,0.285,0.398,0.513c0.119-0.212,0.273-0.379,0.463-0.501
		c0.19-0.122,0.413-0.183,0.668-0.183c0.376,0,0.673,0.129,0.892,0.388c0.219,0.259,0.328,0.648,0.328,1.167V12.5h-0.673v-2.218
		c0-0.365-0.063-0.623-0.188-0.774c-0.125-0.152-0.312-0.228-0.561-0.228c-0.23,0-0.417,0.08-0.559,0.239
		c-0.142,0.16-0.226,0.361-0.251,0.605v0.027V12.5h-0.677v-2.218c0-0.346-0.064-0.6-0.193-0.76C56.035,9.36,55.85,9.28,55.608,9.28
		c-0.205,0-0.374,0.042-0.506,0.126s-0.233,0.203-0.304,0.355V12.5h-0.673V8.802H54.726z"/>
	<path d="M61.774,12.572c-0.531,0-0.945-0.17-1.243-0.51c-0.297-0.34-0.446-0.786-0.446-1.34v-0.15c0-0.531,0.153-0.97,0.459-1.317
		c0.307-0.348,0.681-0.521,1.123-0.521c0.495,0,0.865,0.154,1.112,0.461c0.248,0.308,0.371,0.717,0.371,1.227v0.355h-2.365
		l-0.01,0.017c0,0.372,0.082,0.672,0.246,0.904s0.415,0.347,0.752,0.347c0.228,0,0.428-0.032,0.6-0.097
		c0.172-0.065,0.319-0.154,0.442-0.269l0.263,0.438c-0.132,0.128-0.307,0.235-0.523,0.323S62.079,12.572,61.774,12.572z
		 M61.668,9.263c-0.235,0-0.429,0.09-0.583,0.272c-0.153,0.181-0.248,0.413-0.282,0.695l0.007,0.017h1.668v-0.055
		c0-0.269-0.066-0.491-0.198-0.667S61.944,9.263,61.668,9.263z"/>
	<path d="M64.508,8.802l0.048,0.55c0.123-0.196,0.277-0.348,0.463-0.457c0.186-0.108,0.397-0.162,0.634-0.162
		c0.399,0,0.708,0.117,0.926,0.351c0.219,0.233,0.328,0.594,0.328,1.082V12.5h-0.673v-2.321c0-0.326-0.064-0.557-0.193-0.694
		c-0.128-0.137-0.325-0.205-0.589-0.205c-0.208,0-0.383,0.042-0.528,0.125c-0.145,0.083-0.259,0.2-0.344,0.35V12.5h-0.673V8.802
		H64.508z"/>
	<path d="M68.822,7.91v0.892h0.701v0.499h-0.701v2.246c0,0.173,0.036,0.295,0.108,0.365c0.071,0.07,0.167,0.105,0.285,0.105
		c0.039,0,0.082-0.005,0.13-0.015c0.048-0.011,0.088-0.021,0.12-0.032l0.092,0.461c-0.05,0.041-0.124,0.074-0.222,0.101
		s-0.195,0.04-0.291,0.04c-0.273,0-0.491-0.083-0.653-0.248s-0.243-0.425-0.243-0.777V9.301h-0.588V8.802h0.588V7.91H68.822z"/>
	<path d="M72.92,7.91v0.892h0.701v0.499H72.92v2.246c0,0.173,0.036,0.295,0.108,0.365c0.071,0.07,0.167,0.105,0.285,0.105
		c0.039,0,0.082-0.005,0.13-0.015c0.048-0.011,0.088-0.021,0.12-0.032l0.092,0.461c-0.05,0.041-0.124,0.074-0.222,0.101
		s-0.195,0.04-0.291,0.04c-0.273,0-0.491-0.083-0.653-0.248s-0.243-0.425-0.243-0.777V9.301h-0.588V8.802h0.588V7.91H72.92z"/>
	<path d="M75.015,9.297c0.127-0.178,0.284-0.316,0.47-0.416c0.186-0.099,0.392-0.148,0.617-0.148c0.394,0,0.701,0.119,0.921,0.355
		c0.22,0.237,0.33,0.602,0.33,1.094V12.5H76.68v-2.324c0-0.305-0.065-0.531-0.197-0.677c-0.131-0.146-0.326-0.219-0.586-0.219
		c-0.201,0-0.375,0.039-0.523,0.118c-0.148,0.078-0.268,0.188-0.359,0.33V12.5h-0.673V7.168h0.673V9.297z"/>
	<path d="M79.852,12.572c-0.531,0-0.945-0.17-1.243-0.51c-0.297-0.34-0.446-0.786-0.446-1.34v-0.15c0-0.531,0.153-0.97,0.459-1.317
		c0.307-0.348,0.681-0.521,1.123-0.521c0.495,0,0.865,0.154,1.112,0.461c0.248,0.308,0.371,0.717,0.371,1.227v0.355h-2.365
		l-0.01,0.017c0,0.372,0.082,0.672,0.246,0.904s0.415,0.347,0.752,0.347c0.228,0,0.428-0.032,0.6-0.097
		c0.172-0.065,0.319-0.154,0.442-0.269l0.263,0.438c-0.132,0.128-0.307,0.235-0.523,0.323S80.157,12.572,79.852,12.572z
		 M79.746,9.263c-0.235,0-0.429,0.09-0.583,0.272c-0.153,0.181-0.248,0.413-0.282,0.695l0.007,0.017h1.668v-0.055
		c0-0.269-0.066-0.491-0.198-0.667S80.021,9.263,79.746,9.263z"/>
	<path d="M85.194,12.045c0.208,0,0.389-0.068,0.543-0.206s0.232-0.308,0.232-0.508h0.608l0.01,0.021
		c0.009,0.319-0.127,0.603-0.41,0.85s-0.611,0.371-0.984,0.371c-0.52,0-0.92-0.177-1.203-0.53s-0.424-0.793-0.424-1.319v-0.144
		c0-0.522,0.142-0.96,0.425-1.314c0.284-0.354,0.685-0.531,1.202-0.531c0.413,0,0.75,0.127,1.013,0.383
		c0.264,0.255,0.391,0.568,0.381,0.94l-0.007,0.021H85.97c0-0.226-0.073-0.417-0.221-0.576c-0.146-0.159-0.332-0.238-0.555-0.238
		c-0.331,0-0.571,0.128-0.723,0.384c-0.151,0.257-0.227,0.567-0.227,0.932v0.144c0,0.371,0.075,0.685,0.224,0.939
		C84.617,11.918,84.859,12.045,85.194,12.045z"/>
	<path d="M88.062,9.297c0.127-0.178,0.284-0.316,0.47-0.416c0.186-0.099,0.392-0.148,0.617-0.148c0.394,0,0.701,0.119,0.921,0.355
		c0.22,0.237,0.33,0.602,0.33,1.094V12.5h-0.673v-2.324c0-0.305-0.065-0.531-0.197-0.677c-0.131-0.146-0.326-0.219-0.586-0.219
		c-0.201,0-0.375,0.039-0.523,0.118c-0.148,0.078-0.268,0.188-0.359,0.33V12.5h-0.673V7.168h0.673V9.297z"/>
	<path d="M93.64,12.5c-0.023-0.111-0.041-0.21-0.053-0.296c-0.013-0.085-0.02-0.171-0.022-0.258
		c-0.125,0.178-0.289,0.326-0.49,0.446c-0.202,0.119-0.419,0.18-0.651,0.18c-0.385,0-0.679-0.099-0.88-0.296
		c-0.202-0.197-0.303-0.469-0.303-0.815c0-0.354,0.143-0.629,0.429-0.829c0.286-0.199,0.674-0.299,1.164-0.299h0.731V9.967
		c0-0.216-0.066-0.388-0.198-0.514c-0.132-0.127-0.319-0.19-0.561-0.19c-0.219,0-0.396,0.055-0.53,0.164s-0.202,0.24-0.202,0.393
		l-0.639,0.007l-0.007-0.021c-0.016-0.269,0.11-0.515,0.377-0.738c0.268-0.223,0.614-0.335,1.038-0.335
		c0.419,0,0.756,0.106,1.012,0.319c0.255,0.213,0.383,0.521,0.383,0.921v1.781c0,0.132,0.007,0.26,0.021,0.383
		s0.039,0.244,0.075,0.362H93.64z M92.522,12.008c0.244,0,0.464-0.063,0.66-0.188c0.196-0.126,0.324-0.27,0.383-0.432v-0.601h-0.755
		c-0.271,0-0.488,0.068-0.651,0.205c-0.163,0.136-0.245,0.297-0.245,0.482c0,0.164,0.051,0.294,0.154,0.39
		S92.321,12.008,92.522,12.008z"/>
	<path d="M95.817,8.802l0.048,0.55c0.123-0.196,0.277-0.348,0.463-0.457c0.186-0.108,0.397-0.162,0.634-0.162
		c0.399,0,0.708,0.117,0.926,0.351c0.219,0.233,0.328,0.594,0.328,1.082V12.5h-0.673v-2.321c0-0.326-0.064-0.557-0.193-0.694
		C97.221,9.349,97.024,9.28,96.76,9.28c-0.208,0-0.383,0.042-0.528,0.125c-0.145,0.083-0.259,0.2-0.344,0.35V12.5h-0.673V8.802
		H95.817z"/>
	<path d="M99.074,10.719c0-0.595,0.127-1.074,0.381-1.439c0.254-0.365,0.609-0.547,1.065-0.547c0.235,0,0.441,0.047,0.619,0.142
		c0.178,0.095,0.327,0.231,0.448,0.409l0.082-0.482h0.537v3.719c0,0.474-0.138,0.838-0.414,1.092s-0.673,0.382-1.193,0.382
		c-0.178,0-0.37-0.025-0.576-0.074c-0.206-0.049-0.388-0.115-0.545-0.199l0.103-0.523c0.13,0.068,0.287,0.124,0.47,0.166
		c0.184,0.042,0.364,0.063,0.542,0.063c0.328,0,0.567-0.074,0.716-0.224c0.149-0.149,0.224-0.376,0.224-0.682V12.1
		c-0.121,0.155-0.266,0.272-0.434,0.353s-0.363,0.12-0.584,0.12c-0.451,0-0.804-0.164-1.058-0.491
		c-0.254-0.327-0.381-0.757-0.381-1.29V10.719z M99.748,10.791c0,0.371,0.076,0.67,0.229,0.896s0.389,0.339,0.708,0.339
		c0.203,0,0.373-0.047,0.509-0.139c0.137-0.093,0.25-0.223,0.338-0.392V9.793c-0.086-0.157-0.199-0.282-0.338-0.374
		c-0.139-0.093-0.307-0.139-0.502-0.139c-0.321,0-0.559,0.133-0.712,0.4c-0.154,0.267-0.231,0.613-0.231,1.039V10.791z"/>
	<path d="M104.704,12.572c-0.531,0-0.945-0.17-1.243-0.51c-0.297-0.34-0.446-0.786-0.446-1.34v-0.15c0-0.531,0.153-0.97,0.459-1.317
		c0.307-0.348,0.681-0.521,1.123-0.521c0.495,0,0.865,0.154,1.112,0.461c0.248,0.308,0.371,0.717,0.371,1.227v0.355h-2.365
		l-0.01,0.017c0,0.372,0.082,0.672,0.246,0.904s0.415,0.347,0.752,0.347c0.228,0,0.428-0.032,0.6-0.097
		c0.172-0.065,0.319-0.154,0.442-0.269l0.263,0.438c-0.132,0.128-0.307,0.235-0.523,0.323S105.009,12.572,104.704,12.572z
		 M104.598,9.263c-0.235,0-0.429,0.09-0.583,0.272c-0.153,0.181-0.248,0.413-0.282,0.695l0.007,0.017h1.668v-0.055
		c0-0.269-0.066-0.491-0.198-0.667S104.874,9.263,104.598,9.263z"/>
</g>
<circle fill="#FAA41A" cx="119.5" cy="10" r="2.5"/>
<g>
	<path d="M126.827,12.5h-0.677V7.523h0.677V12.5z"/>
	<path d="M128.57,8.802l0.048,0.485c0.121-0.175,0.274-0.312,0.459-0.408c0.186-0.097,0.402-0.146,0.648-0.146
		s0.458,0.057,0.634,0.171c0.176,0.114,0.309,0.285,0.398,0.513c0.119-0.212,0.273-0.379,0.463-0.501
		c0.19-0.122,0.413-0.183,0.668-0.183c0.376,0,0.673,0.129,0.892,0.388c0.219,0.259,0.328,0.648,0.328,1.167V12.5h-0.673v-2.218
		c0-0.365-0.063-0.623-0.188-0.774c-0.125-0.152-0.312-0.228-0.561-0.228c-0.23,0-0.417,0.08-0.559,0.239
		c-0.142,0.16-0.226,0.361-0.251,0.605v0.027V12.5H130.2v-2.218c0-0.346-0.064-0.6-0.193-0.76c-0.128-0.161-0.313-0.241-0.555-0.241
		c-0.205,0-0.374,0.042-0.506,0.126s-0.233,0.203-0.304,0.355V12.5h-0.673V8.802H128.57z"/>
	<path d="M137.238,10.791c0,0.533-0.127,0.963-0.383,1.29s-0.607,0.491-1.056,0.491c-0.228,0-0.428-0.039-0.6-0.115
		c-0.172-0.076-0.319-0.19-0.439-0.344v1.809h-0.673v-5.12h0.516l0.106,0.479c0.121-0.178,0.271-0.313,0.451-0.407
		s0.39-0.14,0.629-0.14c0.458,0,0.814,0.182,1.068,0.545c0.254,0.364,0.381,0.844,0.381,1.441V10.791z M136.564,10.719
		c0-0.419-0.083-0.764-0.248-1.034c-0.165-0.271-0.408-0.405-0.729-0.405c-0.194,0-0.359,0.044-0.496,0.132
		c-0.137,0.087-0.247,0.208-0.332,0.36v1.788c0.084,0.152,0.195,0.271,0.332,0.356c0.137,0.086,0.304,0.128,0.502,0.128
		c0.319,0,0.561-0.116,0.725-0.35c0.164-0.234,0.246-0.535,0.246-0.904V10.719z"/>
	<path d="M138.793,12.5h-0.673V7.168h0.673V12.5z"/>
	<path d="M141.359,12.572c-0.53,0-0.944-0.17-1.242-0.51c-0.297-0.34-0.446-0.786-0.446-1.34v-0.15c0-0.531,0.153-0.97,0.459-1.317
		c0.307-0.348,0.681-0.521,1.123-0.521c0.494,0,0.865,0.154,1.112,0.461s0.371,0.717,0.371,1.227v0.355h-2.365l-0.01,0.017
		c0,0.372,0.082,0.672,0.246,0.904s0.415,0.347,0.751,0.347c0.229,0,0.428-0.032,0.601-0.097c0.172-0.065,0.319-0.154,0.442-0.269
		l0.264,0.438c-0.133,0.128-0.307,0.235-0.523,0.323S141.665,12.572,141.359,12.572z M141.254,9.263
		c-0.234,0-0.429,0.09-0.583,0.272c-0.153,0.181-0.248,0.413-0.282,0.695l0.007,0.017h1.668v-0.055c0-0.269-0.066-0.491-0.199-0.667
		C141.733,9.351,141.529,9.263,141.254,9.263z"/>
	<path d="M144.094,8.802l0.049,0.485c0.12-0.175,0.273-0.312,0.459-0.408c0.186-0.097,0.402-0.146,0.648-0.146
		s0.457,0.057,0.634,0.171s0.31,0.285,0.397,0.513c0.119-0.212,0.273-0.379,0.464-0.501c0.19-0.122,0.413-0.183,0.668-0.183
		c0.376,0,0.673,0.129,0.892,0.388c0.219,0.259,0.328,0.648,0.328,1.167V12.5h-0.673v-2.218c0-0.365-0.063-0.623-0.188-0.774
		c-0.125-0.152-0.312-0.228-0.561-0.228c-0.229,0-0.416,0.08-0.559,0.239s-0.227,0.361-0.251,0.605v0.027V12.5h-0.677v-2.218
		c0-0.346-0.064-0.6-0.193-0.76c-0.129-0.161-0.313-0.241-0.555-0.241c-0.205,0-0.374,0.042-0.506,0.126
		c-0.133,0.084-0.234,0.203-0.305,0.355V12.5h-0.674V8.802H144.094z"/>
	<path d="M151.143,12.572c-0.531,0-0.945-0.17-1.243-0.51c-0.297-0.34-0.446-0.786-0.446-1.34v-0.15c0-0.531,0.154-0.97,0.46-1.317
		c0.307-0.348,0.681-0.521,1.123-0.521c0.495,0,0.865,0.154,1.112,0.461c0.248,0.308,0.371,0.717,0.371,1.227v0.355h-2.365
		l-0.01,0.017c0,0.372,0.082,0.672,0.246,0.904s0.414,0.347,0.752,0.347c0.228,0,0.428-0.032,0.6-0.097
		c0.172-0.065,0.319-0.154,0.442-0.269l0.263,0.438c-0.132,0.128-0.307,0.235-0.522,0.323S151.447,12.572,151.143,12.572z
		 M151.036,9.263c-0.235,0-0.429,0.09-0.583,0.272c-0.153,0.181-0.248,0.413-0.281,0.695l0.006,0.017h1.668v-0.055
		c0-0.269-0.065-0.491-0.197-0.667C151.516,9.351,151.313,9.263,151.036,9.263z"/>
	<path d="M153.877,8.802l0.047,0.55c0.123-0.196,0.277-0.348,0.464-0.457c0.186-0.108,0.397-0.162,0.634-0.162
		c0.398,0,0.707,0.117,0.926,0.351c0.219,0.233,0.328,0.594,0.328,1.082V12.5h-0.673v-2.321c0-0.326-0.064-0.557-0.193-0.694
		c-0.128-0.137-0.325-0.205-0.589-0.205c-0.208,0-0.384,0.042-0.528,0.125c-0.146,0.083-0.259,0.2-0.344,0.35V12.5h-0.673V8.802
		H153.877z"/>
	<path d="M158.189,7.91v0.892h0.701v0.499h-0.701v2.246c0,0.173,0.036,0.295,0.108,0.365c0.071,0.07,0.167,0.105,0.285,0.105
		c0.038,0,0.082-0.005,0.13-0.015c0.048-0.011,0.088-0.021,0.119-0.032l0.093,0.461c-0.05,0.041-0.124,0.074-0.222,0.101
		c-0.099,0.026-0.195,0.04-0.291,0.04c-0.273,0-0.491-0.083-0.652-0.248c-0.162-0.165-0.243-0.425-0.243-0.777V9.301h-0.588V8.802
		h0.588V7.91H158.189z"/>
	<path d="M162.288,7.91v0.892h0.7v0.499h-0.7v2.246c0,0.173,0.036,0.295,0.108,0.365c0.07,0.07,0.166,0.105,0.285,0.105
		c0.038,0,0.082-0.005,0.129-0.015c0.049-0.011,0.088-0.021,0.12-0.032l0.093,0.461c-0.051,0.041-0.125,0.074-0.223,0.101
		s-0.195,0.04-0.291,0.04c-0.273,0-0.49-0.083-0.652-0.248s-0.242-0.425-0.242-0.777V9.301h-0.588V8.802h0.588V7.91H162.288z"/>
	<path d="M164.383,9.297c0.128-0.178,0.285-0.316,0.471-0.416c0.186-0.099,0.391-0.148,0.617-0.148c0.394,0,0.701,0.119,0.92,0.355
		c0.221,0.237,0.33,0.602,0.33,1.094V12.5h-0.673v-2.324c0-0.305-0.065-0.531-0.196-0.677s-0.326-0.219-0.586-0.219
		c-0.201,0-0.375,0.039-0.523,0.118c-0.148,0.078-0.268,0.188-0.359,0.33V12.5h-0.673V7.168h0.673V9.297z"/>
	<path d="M169.22,12.572c-0.53,0-0.944-0.17-1.243-0.51c-0.297-0.34-0.445-0.786-0.445-1.34v-0.15c0-0.531,0.153-0.97,0.459-1.317
		c0.307-0.348,0.682-0.521,1.123-0.521c0.495,0,0.865,0.154,1.113,0.461c0.247,0.308,0.371,0.717,0.371,1.227v0.355h-2.365
		l-0.011,0.017c0,0.372,0.082,0.672,0.246,0.904s0.415,0.347,0.752,0.347c0.228,0,0.428-0.032,0.601-0.097
		c0.172-0.065,0.318-0.154,0.441-0.269l0.264,0.438c-0.133,0.128-0.307,0.235-0.523,0.323
		C169.786,12.528,169.525,12.572,169.22,12.572z M169.113,9.263c-0.234,0-0.428,0.09-0.582,0.272
		c-0.154,0.181-0.248,0.413-0.282,0.695l0.007,0.017h1.668v-0.055c0-0.269-0.066-0.491-0.198-0.667S169.39,9.263,169.113,9.263z"/>
	<path d="M174.563,12.045c0.207,0,0.389-0.068,0.543-0.206s0.232-0.308,0.232-0.508h0.608l0.011,0.021
		c0.009,0.319-0.128,0.603-0.41,0.85c-0.283,0.247-0.611,0.371-0.984,0.371c-0.52,0-0.921-0.177-1.203-0.53
		c-0.283-0.354-0.424-0.793-0.424-1.319v-0.144c0-0.522,0.142-0.96,0.425-1.314c0.284-0.354,0.685-0.531,1.202-0.531
		c0.412,0,0.75,0.127,1.013,0.383c0.264,0.255,0.391,0.568,0.382,0.94l-0.008,0.021h-0.611c0-0.226-0.073-0.417-0.221-0.576
		c-0.146-0.159-0.332-0.238-0.555-0.238c-0.331,0-0.572,0.128-0.724,0.384c-0.151,0.257-0.228,0.567-0.228,0.932v0.144
		c0,0.371,0.075,0.685,0.225,0.939C173.984,11.918,174.227,12.045,174.563,12.045z"/>
	<path d="M177.43,9.297c0.127-0.178,0.284-0.316,0.47-0.416c0.187-0.099,0.392-0.148,0.617-0.148c0.394,0,0.701,0.119,0.921,0.355
		c0.221,0.237,0.33,0.602,0.33,1.094V12.5h-0.674v-2.324c0-0.305-0.064-0.531-0.196-0.677c-0.131-0.146-0.326-0.219-0.586-0.219
		c-0.2,0-0.375,0.039-0.522,0.118c-0.148,0.078-0.268,0.188-0.359,0.33V12.5h-0.674V7.168h0.674V9.297z"/>
	<path d="M183.008,12.5c-0.023-0.111-0.041-0.21-0.053-0.296c-0.013-0.085-0.02-0.171-0.022-0.258
		c-0.126,0.178-0.289,0.326-0.49,0.446c-0.202,0.119-0.419,0.18-0.651,0.18c-0.385,0-0.679-0.099-0.88-0.296
		c-0.202-0.197-0.303-0.469-0.303-0.815c0-0.354,0.144-0.629,0.429-0.829c0.286-0.199,0.674-0.299,1.164-0.299h0.731V9.967
		c0-0.216-0.065-0.388-0.198-0.514c-0.133-0.127-0.318-0.19-0.561-0.19c-0.219,0-0.396,0.055-0.529,0.164
		c-0.135,0.109-0.202,0.24-0.202,0.393l-0.64,0.007l-0.006-0.021c-0.017-0.269,0.109-0.515,0.377-0.738s0.613-0.335,1.037-0.335
		c0.42,0,0.757,0.106,1.012,0.319c0.256,0.213,0.383,0.521,0.383,0.921v1.781c0,0.132,0.008,0.26,0.021,0.383
		s0.038,0.244,0.074,0.362H183.008z M181.891,12.008c0.243,0,0.463-0.063,0.659-0.188c0.196-0.126,0.323-0.27,0.383-0.432v-0.601
		h-0.755c-0.271,0-0.488,0.068-0.651,0.205c-0.163,0.136-0.245,0.297-0.245,0.482c0,0.164,0.052,0.294,0.154,0.39
		S181.689,12.008,181.891,12.008z"/>
	<path d="M185.186,8.802l0.047,0.55c0.123-0.196,0.277-0.348,0.464-0.457c0.186-0.108,0.397-0.162,0.634-0.162
		c0.398,0,0.707,0.117,0.926,0.351c0.219,0.233,0.328,0.594,0.328,1.082V12.5h-0.673v-2.321c0-0.326-0.064-0.557-0.193-0.694
		c-0.128-0.137-0.325-0.205-0.589-0.205c-0.208,0-0.384,0.042-0.528,0.125c-0.146,0.083-0.259,0.2-0.344,0.35V12.5h-0.673V8.802
		H185.186z"/>
	<path d="M188.442,10.719c0-0.595,0.127-1.074,0.381-1.439c0.255-0.365,0.609-0.547,1.065-0.547c0.234,0,0.44,0.047,0.618,0.142
		c0.178,0.095,0.327,0.231,0.448,0.409l0.082-0.482h0.536v3.719c0,0.474-0.138,0.838-0.413,1.092
		c-0.276,0.254-0.674,0.382-1.193,0.382c-0.178,0-0.369-0.025-0.576-0.074c-0.206-0.049-0.388-0.115-0.545-0.199l0.103-0.523
		c0.13,0.068,0.286,0.124,0.47,0.166s0.364,0.063,0.542,0.063c0.328,0,0.567-0.074,0.716-0.224c0.149-0.149,0.225-0.376,0.225-0.682
		V12.1c-0.121,0.155-0.266,0.272-0.435,0.353s-0.363,0.12-0.585,0.12c-0.451,0-0.803-0.164-1.058-0.491
		c-0.254-0.327-0.381-0.757-0.381-1.29V10.719z M189.115,10.791c0,0.371,0.076,0.67,0.229,0.896s0.389,0.339,0.708,0.339
		c0.202,0,0.372-0.047,0.509-0.139c0.137-0.093,0.249-0.223,0.339-0.392V9.793c-0.087-0.157-0.199-0.282-0.339-0.374
		c-0.14-0.093-0.307-0.139-0.503-0.139c-0.32,0-0.559,0.133-0.712,0.4c-0.154,0.267-0.231,0.613-0.231,1.039V10.791z"/>
	<path d="M194.072,12.572c-0.531,0-0.945-0.17-1.243-0.51c-0.297-0.34-0.446-0.786-0.446-1.34v-0.15c0-0.531,0.154-0.97,0.46-1.317
		c0.307-0.348,0.681-0.521,1.123-0.521c0.495,0,0.865,0.154,1.112,0.461c0.248,0.308,0.371,0.717,0.371,1.227v0.355h-2.365
		l-0.01,0.017c0,0.372,0.082,0.672,0.246,0.904s0.414,0.347,0.752,0.347c0.228,0,0.428-0.032,0.6-0.097
		c0.172-0.065,0.319-0.154,0.442-0.269l0.263,0.438c-0.132,0.128-0.307,0.235-0.522,0.323S194.377,12.572,194.072,12.572z
		 M193.966,9.263c-0.235,0-0.429,0.09-0.583,0.272c-0.153,0.181-0.248,0.413-0.281,0.695l0.006,0.017h1.668v-0.055
		c0-0.269-0.065-0.491-0.197-0.667C194.445,9.351,194.242,9.263,193.966,9.263z"/>
	<path d="M198.891,11.153l0.086,0.476h0.021l0.089-0.476l0.738-2.352h0.54l0.741,2.352l0.096,0.53h0.021l0.109-0.53l0.547-2.352
		h0.703L201.51,12.5h-0.544l-0.731-2.252l-0.141-0.588h-0.02l-0.131,0.588l-0.717,2.252h-0.544l-1.073-3.698h0.701L198.891,11.153z"
		/>
	<path d="M203.971,7.855h-0.674V7.168h0.674V7.855z M203.971,12.5h-0.674V8.802h0.674V12.5z"/>
	<path d="M205.942,7.91v0.892h0.7v0.499h-0.7v2.246c0,0.173,0.036,0.295,0.108,0.365c0.07,0.07,0.166,0.105,0.285,0.105
		c0.038,0,0.082-0.005,0.129-0.015c0.049-0.011,0.088-0.021,0.12-0.032l0.093,0.461c-0.051,0.041-0.125,0.074-0.223,0.101
		s-0.195,0.04-0.291,0.04c-0.273,0-0.49-0.083-0.652-0.248s-0.242-0.425-0.242-0.777V9.301h-0.588V8.802h0.588V7.91H205.942z"/>
	<path d="M208.037,9.297c0.128-0.178,0.285-0.316,0.471-0.416c0.186-0.099,0.391-0.148,0.617-0.148c0.394,0,0.701,0.119,0.92,0.355
		c0.221,0.237,0.33,0.602,0.33,1.094V12.5h-0.673v-2.324c0-0.305-0.065-0.531-0.196-0.677S209.18,9.28,208.92,9.28
		c-0.201,0-0.375,0.039-0.523,0.118c-0.148,0.078-0.268,0.188-0.359,0.33V12.5h-0.673V7.168h0.673V9.297z"/>
	<path d="M214.553,12.045c0.207,0,0.389-0.068,0.543-0.206s0.232-0.308,0.232-0.508h0.608l0.011,0.021
		c0.009,0.319-0.128,0.603-0.41,0.85c-0.283,0.247-0.611,0.371-0.984,0.371c-0.52,0-0.921-0.177-1.203-0.53
		c-0.283-0.354-0.424-0.793-0.424-1.319v-0.144c0-0.522,0.142-0.96,0.425-1.314c0.284-0.354,0.685-0.531,1.202-0.531
		c0.412,0,0.75,0.127,1.013,0.383c0.264,0.255,0.391,0.568,0.382,0.94l-0.008,0.021h-0.611c0-0.226-0.073-0.417-0.221-0.576
		c-0.146-0.159-0.332-0.238-0.555-0.238c-0.331,0-0.572,0.128-0.724,0.384c-0.151,0.257-0.228,0.567-0.228,0.932v0.144
		c0,0.371,0.075,0.685,0.225,0.939C213.975,11.918,214.217,12.045,214.553,12.045z"/>
	<path d="M219.02,12.5c-0.023-0.111-0.041-0.21-0.053-0.296c-0.013-0.085-0.02-0.171-0.022-0.258
		c-0.126,0.178-0.289,0.326-0.49,0.446c-0.202,0.119-0.419,0.18-0.651,0.18c-0.385,0-0.679-0.099-0.88-0.296
		c-0.202-0.197-0.303-0.469-0.303-0.815c0-0.354,0.144-0.629,0.429-0.829c0.286-0.199,0.674-0.299,1.164-0.299h0.731V9.967
		c0-0.216-0.065-0.388-0.198-0.514c-0.133-0.127-0.318-0.19-0.561-0.19c-0.219,0-0.396,0.055-0.529,0.164
		c-0.135,0.109-0.202,0.24-0.202,0.393l-0.64,0.007l-0.006-0.021c-0.017-0.269,0.109-0.515,0.377-0.738s0.613-0.335,1.037-0.335
		c0.42,0,0.757,0.106,1.012,0.319c0.256,0.213,0.383,0.521,0.383,0.921v1.781c0,0.132,0.008,0.26,0.021,0.383
		s0.038,0.244,0.074,0.362H219.02z M217.902,12.008c0.243,0,0.463-0.063,0.659-0.188c0.196-0.126,0.323-0.27,0.383-0.432v-0.601
		h-0.755c-0.271,0-0.488,0.068-0.651,0.205c-0.163,0.136-0.245,0.297-0.245,0.482c0,0.164,0.052,0.294,0.154,0.39
		S217.701,12.008,217.902,12.008z"/>
	<path d="M222.943,11.953c-0.116,0.198-0.266,0.351-0.447,0.458c-0.183,0.107-0.394,0.161-0.633,0.161
		c-0.403,0-0.718-0.129-0.943-0.387s-0.338-0.658-0.338-1.203V8.802h0.673v2.188c0,0.394,0.058,0.665,0.175,0.813
		c0.115,0.148,0.297,0.223,0.543,0.223c0.239,0,0.438-0.049,0.593-0.146c0.156-0.097,0.274-0.234,0.354-0.412V8.802h0.673V12.5
		h-0.604L222.943,11.953z"/>
	<path d="M225.51,7.91v0.892h0.701v0.499h-0.701v2.246c0,0.173,0.036,0.295,0.108,0.365c0.071,0.07,0.167,0.105,0.285,0.105
		c0.038,0,0.082-0.005,0.13-0.015c0.048-0.011,0.088-0.021,0.119-0.032l0.093,0.461c-0.05,0.041-0.124,0.074-0.222,0.101
		c-0.099,0.026-0.195,0.04-0.291,0.04c-0.273,0-0.491-0.083-0.652-0.248c-0.162-0.165-0.243-0.425-0.243-0.777V9.301h-0.588V8.802
		h0.588V7.91H225.51z"/>
	<path d="M227.66,7.855h-0.674V7.168h0.674V7.855z M227.66,12.5h-0.674V8.802h0.674V12.5z"/>
	<path d="M228.539,10.617c0-0.547,0.147-0.998,0.443-1.352c0.297-0.354,0.699-0.531,1.207-0.531c0.513,0,0.918,0.177,1.215,0.53
		c0.298,0.353,0.446,0.804,0.446,1.354v0.075c0,0.551-0.147,1.002-0.444,1.353c-0.297,0.352-0.699,0.527-1.21,0.527
		s-0.914-0.177-1.212-0.528c-0.297-0.353-0.445-0.803-0.445-1.352V10.617z M229.212,10.692c0,0.392,0.083,0.715,0.248,0.97
		c0.165,0.256,0.411,0.383,0.736,0.383c0.321,0,0.565-0.127,0.731-0.383c0.166-0.255,0.25-0.578,0.25-0.97v-0.075
		c0-0.387-0.084-0.71-0.252-0.967c-0.167-0.257-0.412-0.386-0.736-0.386c-0.321,0-0.564,0.129-0.729,0.386s-0.248,0.58-0.248,0.967
		V10.692z"/>
	<path d="M233.275,8.802l0.049,0.55c0.123-0.196,0.277-0.348,0.463-0.457c0.186-0.108,0.396-0.162,0.634-0.162
		c0.399,0,0.708,0.117,0.927,0.351c0.219,0.233,0.328,0.594,0.328,1.082V12.5h-0.674v-2.321c0-0.326-0.064-0.557-0.193-0.694
		s-0.325-0.205-0.59-0.205c-0.207,0-0.383,0.042-0.527,0.125c-0.145,0.083-0.26,0.2-0.344,0.35V12.5h-0.674V8.802H233.275z"/>
</g>
<circle fill="#0D8140" cx="249.168" cy="10" r="2.5"/>
<g>
	<path d="M256.494,12.5h-0.678V7.523h0.678V12.5z"/>
	<path d="M258.236,8.802l0.049,0.485c0.12-0.175,0.273-0.312,0.459-0.408c0.186-0.097,0.402-0.146,0.648-0.146
		s0.457,0.057,0.634,0.171s0.31,0.285,0.397,0.513c0.119-0.212,0.273-0.379,0.464-0.501c0.19-0.122,0.413-0.183,0.668-0.183
		c0.376,0,0.673,0.129,0.892,0.388c0.219,0.259,0.328,0.648,0.328,1.167V12.5h-0.673v-2.218c0-0.365-0.063-0.623-0.188-0.774
		c-0.125-0.152-0.312-0.228-0.561-0.228c-0.229,0-0.416,0.08-0.559,0.239s-0.227,0.361-0.251,0.605v0.027V12.5h-0.677v-2.218
		c0-0.346-0.064-0.6-0.193-0.76c-0.129-0.161-0.313-0.241-0.555-0.241c-0.205,0-0.374,0.042-0.506,0.126
		c-0.133,0.084-0.234,0.203-0.305,0.355V12.5h-0.674V8.802H258.236z"/>
	<path d="M266.904,10.791c0,0.533-0.127,0.963-0.383,1.29c-0.255,0.327-0.607,0.491-1.056,0.491c-0.228,0-0.428-0.039-0.6-0.115
		c-0.173-0.076-0.319-0.19-0.439-0.344v1.809h-0.673v-5.12h0.516l0.105,0.479c0.121-0.178,0.271-0.313,0.451-0.407
		c0.181-0.093,0.391-0.14,0.629-0.14c0.459,0,0.814,0.182,1.068,0.545c0.254,0.364,0.381,0.844,0.381,1.441V10.791z M266.231,10.719
		c0-0.419-0.083-0.764-0.248-1.034c-0.165-0.271-0.408-0.405-0.729-0.405c-0.193,0-0.359,0.044-0.496,0.132
		c-0.137,0.087-0.246,0.208-0.331,0.36v1.788c0.085,0.152,0.194,0.271,0.331,0.356c0.137,0.086,0.305,0.128,0.503,0.128
		c0.319,0,0.561-0.116,0.725-0.35c0.164-0.234,0.246-0.535,0.246-0.904V10.719z"/>
	<path d="M268.46,12.5h-0.673V7.168h0.673V12.5z"/>
	<path d="M271.027,12.572c-0.531,0-0.945-0.17-1.243-0.51c-0.297-0.34-0.446-0.786-0.446-1.34v-0.15c0-0.531,0.154-0.97,0.46-1.317
		c0.307-0.348,0.681-0.521,1.123-0.521c0.495,0,0.865,0.154,1.112,0.461c0.248,0.308,0.371,0.717,0.371,1.227v0.355h-2.365
		l-0.01,0.017c0,0.372,0.082,0.672,0.246,0.904s0.414,0.347,0.752,0.347c0.228,0,0.428-0.032,0.6-0.097
		c0.172-0.065,0.319-0.154,0.442-0.269l0.263,0.438c-0.132,0.128-0.307,0.235-0.522,0.323S271.332,12.572,271.027,12.572z
		 M270.921,9.263c-0.235,0-0.429,0.09-0.583,0.272c-0.153,0.181-0.248,0.413-0.281,0.695l0.006,0.017h1.668v-0.055
		c0-0.269-0.065-0.491-0.197-0.667C271.4,9.351,271.197,9.263,270.921,9.263z"/>
	<path d="M273.762,8.802l0.047,0.485c0.121-0.175,0.274-0.312,0.46-0.408c0.187-0.097,0.401-0.146,0.647-0.146
		s0.458,0.057,0.635,0.171c0.176,0.114,0.309,0.285,0.398,0.513c0.118-0.212,0.272-0.379,0.463-0.501
		c0.189-0.122,0.412-0.183,0.668-0.183c0.376,0,0.674,0.129,0.893,0.388c0.219,0.259,0.328,0.648,0.328,1.167V12.5h-0.674v-2.218
		c0-0.365-0.063-0.623-0.188-0.774c-0.126-0.152-0.313-0.228-0.561-0.228c-0.23,0-0.417,0.08-0.56,0.239
		c-0.142,0.16-0.226,0.361-0.251,0.605v0.027V12.5h-0.677v-2.218c0-0.346-0.064-0.6-0.193-0.76
		c-0.128-0.161-0.313-0.241-0.556-0.241c-0.205,0-0.373,0.042-0.506,0.126c-0.132,0.084-0.232,0.203-0.304,0.355V12.5h-0.673V8.802
		H273.762z"/>
	<path d="M280.809,12.572c-0.53,0-0.944-0.17-1.242-0.51c-0.297-0.34-0.445-0.786-0.445-1.34v-0.15c0-0.531,0.152-0.97,0.459-1.317
		c0.307-0.348,0.682-0.521,1.123-0.521c0.494,0,0.865,0.154,1.112,0.461s0.371,0.717,0.371,1.227v0.355h-2.365l-0.011,0.017
		c0,0.372,0.082,0.672,0.246,0.904s0.415,0.347,0.752,0.347c0.229,0,0.428-0.032,0.601-0.097c0.172-0.065,0.319-0.154,0.442-0.269
		l0.264,0.438c-0.133,0.128-0.307,0.235-0.523,0.323S281.114,12.572,280.809,12.572z M280.703,9.263
		c-0.234,0-0.429,0.09-0.583,0.272c-0.153,0.181-0.247,0.413-0.282,0.695l0.008,0.017h1.668v-0.055c0-0.269-0.066-0.491-0.199-0.667
		C281.183,9.351,280.979,9.263,280.703,9.263z"/>
	<path d="M283.543,8.802l0.049,0.55c0.123-0.196,0.277-0.348,0.463-0.457c0.186-0.108,0.396-0.162,0.634-0.162
		c0.399,0,0.708,0.117,0.927,0.351c0.219,0.233,0.328,0.594,0.328,1.082V12.5h-0.674v-2.321c0-0.326-0.064-0.557-0.193-0.694
		s-0.325-0.205-0.59-0.205c-0.207,0-0.383,0.042-0.527,0.125c-0.145,0.083-0.26,0.2-0.344,0.35V12.5h-0.674V8.802H283.543z"/>
	<path d="M287.857,7.91v0.892h0.7v0.499h-0.7v2.246c0,0.173,0.035,0.295,0.107,0.365c0.071,0.07,0.166,0.105,0.285,0.105
		c0.039,0,0.082-0.005,0.13-0.015c0.048-0.011,0.088-0.021,0.12-0.032l0.092,0.461c-0.051,0.041-0.124,0.074-0.223,0.101
		c-0.098,0.026-0.194,0.04-0.29,0.04c-0.273,0-0.491-0.083-0.653-0.248c-0.161-0.165-0.242-0.425-0.242-0.777V9.301h-0.588V8.802
		h0.588V7.91H287.857z"/>
	<path d="M291.955,7.91v0.892h0.701v0.499h-0.701v2.246c0,0.173,0.035,0.295,0.107,0.365s0.167,0.105,0.285,0.105
		c0.039,0,0.082-0.005,0.131-0.015c0.047-0.011,0.088-0.021,0.119-0.032l0.092,0.461c-0.05,0.041-0.123,0.074-0.222,0.101
		s-0.194,0.04-0.29,0.04c-0.273,0-0.492-0.083-0.653-0.248s-0.243-0.425-0.243-0.777V9.301h-0.588V8.802h0.588V7.91H291.955z"/>
	<path d="M294.051,9.297c0.127-0.178,0.283-0.316,0.469-0.416c0.187-0.099,0.393-0.148,0.617-0.148c0.395,0,0.701,0.119,0.922,0.355
		c0.22,0.237,0.33,0.602,0.33,1.094V12.5h-0.674v-2.324c0-0.305-0.065-0.531-0.197-0.677c-0.131-0.146-0.326-0.219-0.586-0.219
		c-0.2,0-0.375,0.039-0.522,0.118c-0.147,0.078-0.268,0.188-0.358,0.33V12.5h-0.674V7.168h0.674V9.297z"/>
	<path d="M298.887,12.572c-0.531,0-0.945-0.17-1.242-0.51s-0.446-0.786-0.446-1.34v-0.15c0-0.531,0.153-0.97,0.46-1.317
		c0.307-0.348,0.681-0.521,1.123-0.521c0.494,0,0.865,0.154,1.111,0.461c0.248,0.308,0.371,0.717,0.371,1.227v0.355h-2.365
		l-0.01,0.017c0,0.372,0.082,0.672,0.246,0.904s0.414,0.347,0.752,0.347c0.229,0,0.428-0.032,0.6-0.097
		c0.172-0.065,0.32-0.154,0.443-0.269l0.263,0.438c-0.132,0.128-0.307,0.235-0.522,0.323
		C299.453,12.528,299.191,12.572,298.887,12.572z M298.781,9.263c-0.235,0-0.43,0.09-0.584,0.272
		c-0.152,0.181-0.247,0.413-0.281,0.695l0.007,0.017h1.668v-0.055c0-0.269-0.065-0.491-0.198-0.667S299.057,9.263,298.781,9.263z"/>
	<path d="M304.229,12.045c0.208,0,0.389-0.068,0.544-0.206s0.232-0.308,0.232-0.508h0.608l0.01,0.021
		c0.01,0.319-0.127,0.603-0.41,0.85c-0.282,0.247-0.61,0.371-0.984,0.371c-0.52,0-0.92-0.177-1.203-0.53
		c-0.282-0.354-0.424-0.793-0.424-1.319v-0.144c0-0.522,0.143-0.96,0.426-1.314c0.284-0.354,0.685-0.531,1.201-0.531
		c0.413,0,0.751,0.127,1.014,0.383c0.264,0.255,0.391,0.568,0.381,0.94l-0.006,0.021h-0.612c0-0.226-0.073-0.417-0.221-0.576
		c-0.146-0.159-0.332-0.238-0.556-0.238c-0.33,0-0.57,0.128-0.723,0.384c-0.151,0.257-0.227,0.567-0.227,0.932v0.144
		c0,0.371,0.074,0.685,0.224,0.939C303.652,11.918,303.895,12.045,304.229,12.045z"/>
	<path d="M307.097,9.297c0.128-0.178,0.284-0.316,0.47-0.416c0.186-0.099,0.392-0.148,0.617-0.148c0.395,0,0.701,0.119,0.921,0.355
		s0.33,0.602,0.33,1.094V12.5h-0.673v-2.324c0-0.305-0.066-0.531-0.197-0.677s-0.326-0.219-0.586-0.219
		c-0.201,0-0.375,0.039-0.523,0.118c-0.147,0.078-0.268,0.188-0.358,0.33V12.5h-0.673V7.168h0.673V9.297z"/>
	<path d="M312.675,12.5c-0.022-0.111-0.04-0.21-0.053-0.296c-0.013-0.085-0.021-0.171-0.022-0.258
		c-0.125,0.178-0.289,0.326-0.49,0.446c-0.202,0.119-0.419,0.18-0.651,0.18c-0.386,0-0.679-0.099-0.88-0.296
		c-0.202-0.197-0.303-0.469-0.303-0.815c0-0.354,0.143-0.629,0.429-0.829c0.286-0.199,0.675-0.299,1.164-0.299h0.731V9.967
		c0-0.216-0.066-0.388-0.198-0.514c-0.132-0.127-0.319-0.19-0.561-0.19c-0.219,0-0.396,0.055-0.53,0.164
		c-0.134,0.109-0.201,0.24-0.201,0.393l-0.639,0.007l-0.008-0.021c-0.016-0.269,0.11-0.515,0.378-0.738
		c0.269-0.223,0.614-0.335,1.038-0.335c0.419,0,0.756,0.106,1.012,0.319c0.255,0.213,0.383,0.521,0.383,0.921v1.781
		c0,0.132,0.006,0.26,0.02,0.383s0.039,0.244,0.076,0.362H312.675z M311.557,12.008c0.244,0,0.465-0.063,0.66-0.188
		c0.195-0.126,0.324-0.27,0.383-0.432v-0.601h-0.756c-0.271,0-0.488,0.068-0.65,0.205c-0.163,0.136-0.244,0.297-0.244,0.482
		c0,0.164,0.051,0.294,0.153,0.39S311.356,12.008,311.557,12.008z"/>
	<path d="M314.852,8.802l0.049,0.55c0.123-0.196,0.277-0.348,0.463-0.457c0.186-0.108,0.396-0.162,0.634-0.162
		c0.399,0,0.708,0.117,0.927,0.351c0.219,0.233,0.328,0.594,0.328,1.082V12.5h-0.674v-2.321c0-0.326-0.064-0.557-0.193-0.694
		s-0.325-0.205-0.59-0.205c-0.207,0-0.383,0.042-0.527,0.125c-0.145,0.083-0.26,0.2-0.344,0.35V12.5h-0.674V8.802H314.852z"/>
	<path d="M318.109,10.719c0-0.595,0.127-1.074,0.381-1.439s0.609-0.547,1.064-0.547c0.235,0,0.441,0.047,0.619,0.142
		c0.178,0.095,0.327,0.231,0.447,0.409l0.082-0.482h0.537v3.719c0,0.474-0.138,0.838-0.414,1.092
		c-0.275,0.254-0.673,0.382-1.192,0.382c-0.178,0-0.37-0.025-0.576-0.074s-0.388-0.115-0.545-0.199l0.103-0.523
		c0.13,0.068,0.287,0.124,0.47,0.166c0.184,0.042,0.364,0.063,0.542,0.063c0.328,0,0.566-0.074,0.716-0.224s0.224-0.376,0.224-0.682
		V12.1c-0.12,0.155-0.266,0.272-0.434,0.353s-0.363,0.12-0.584,0.12c-0.451,0-0.805-0.164-1.059-0.491s-0.381-0.757-0.381-1.29
		V10.719z M318.783,10.791c0,0.371,0.076,0.67,0.229,0.896s0.389,0.339,0.707,0.339c0.203,0,0.373-0.047,0.51-0.139
		c0.137-0.093,0.25-0.223,0.338-0.392V9.793c-0.086-0.157-0.199-0.282-0.338-0.374c-0.139-0.093-0.307-0.139-0.502-0.139
		c-0.322,0-0.56,0.133-0.713,0.4c-0.154,0.267-0.23,0.613-0.23,1.039V10.791z"/>
	<path d="M323.738,12.572c-0.53,0-0.944-0.17-1.242-0.51c-0.297-0.34-0.445-0.786-0.445-1.34v-0.15c0-0.531,0.152-0.97,0.459-1.317
		c0.307-0.348,0.682-0.521,1.123-0.521c0.494,0,0.865,0.154,1.112,0.461s0.371,0.717,0.371,1.227v0.355h-2.365l-0.011,0.017
		c0,0.372,0.082,0.672,0.246,0.904s0.415,0.347,0.752,0.347c0.229,0,0.428-0.032,0.601-0.097c0.172-0.065,0.319-0.154,0.442-0.269
		l0.264,0.438c-0.133,0.128-0.307,0.235-0.523,0.323S324.044,12.572,323.738,12.572z M323.633,9.263
		c-0.234,0-0.429,0.09-0.583,0.272c-0.153,0.181-0.247,0.413-0.282,0.695l0.008,0.017h1.668v-0.055c0-0.269-0.066-0.491-0.199-0.667
		C324.112,9.351,323.908,9.263,323.633,9.263z"/>
</g>
</svg>
